<?xml version="1.0" encoding="utf-8"?>
<!-- Generator: Adobe Illustrator 24.0.2, SVG Export Plug-In . SVG Version: 6.00 Build 0)  -->
<svg version="1.1" id="Calque_1" xmlns="http://www.w3.org/2000/svg" xmlns:xlink="http://www.w3.org/1999/xlink" x="0px" y="0px"
	 viewBox="0 0 500 500" xml:space="preserve">
<style type="text/css">
	.st0{fill:#A6A6D3;}
	.st1{fill:#474775;}
</style>
<g>
	<path class="st0" d="M237,104V0H0v104H237z"/>
	<path class="st1" d="M273,104h206.1c11.6,0,20.9-9.4,20.9-20.9V20.9C500,9.4,490.6,0,479.1,0H273V104z"/>
	<path class="st1" d="M359,302V199.2c0-0.4,0-0.8,0.1-1.2H0v104H359z"/>
	<path class="st0" d="M395,302h84.1c11.5,0,20.9-9.4,20.9-20.9v-62.2c0-11.6-9.4-20.9-20.9-20.9h-84.1c0,0.4,0.1,0.8,0.1,1.2V302z"
		/>
	<path class="st0" d="M115,500V396.8c0-0.3,0-0.5,0-0.8H0v104H115z"/>
	<path class="st1" d="M151,500h328.1c11.6,0,20.9-9.4,20.9-20.9v-62.2c0-11.5-9.4-20.9-20.9-20.9H151c0,0.3,0,0.5,0,0.8V500z"/>
</g>
</svg>
